<svg data-v-fde0c5aa="" xmlns="http://www.w3.org/2000/svg" viewBox="0 0 300 300" class="iconLeft"><!----><defs data-v-fde0c5aa=""><!----></defs><rect data-v-fde0c5aa="" fill="transparent" x="0" y="0" width="300px" height="300px" class="logo-background-square"></rect><defs data-v-fde0c5aa=""><!----></defs><g data-v-fde0c5aa="" id="df3d6468-588d-4d9e-bbe2-7b597a317f3e" fill="#000000" transform="matrix(2.7603129216035436,0,0,2.7603129216035436,108.59683536159729,122.272657808117)"><path d="M2.03 8.16C2.00 8.16 1.99 8.13 1.99 8.09L1.99 7.53C1.99 7.41 1.97 7.25 1.82 7.25C1.78 7.25 1.74 7.28 1.69 7.29C0.24 8.01 0.22 7.98 0.22 8.05C0.24 8.11 0.27 8.13 0.28 8.15C0.94 8.62 1.05 8.61 1.05 8.89L1.05 12.60C1.05 12.81 0.99 12.89 0.80 12.94C0.42 13.03 0.17 12.95 0.17 13.29C0.17 13.43 0.25 13.52 0.39 13.52C0.43 13.52 1.04 13.44 1.82 13.44C2.58 13.44 3.19 13.52 3.23 13.52C3.42 13.52 3.43 13.36 3.43 13.24C3.43 12.92 3.25 12.98 2.41 12.91C2.07 12.88 2.06 12.64 2.06 12.49L2.06 12.43L2.06 9.07C2.06 8.97 2.06 8.90 2.11 8.82C2.20 8.69 2.76 8.25 3.21 8.25C3.67 8.25 3.68 8.60 4.03 8.60C4.27 8.60 4.45 8.41 4.61 8.32C4.72 8.22 4.97 8.06 4.98 7.83L4.98 7.81C4.98 7.42 4.34 7.20 3.89 7.20C3.74 7.20 3.61 7.21 3.49 7.25C3.11 7.39 2.09 8.16 2.03 8.16ZM5.42 8.61C5.42 8.93 5.71 9.11 5.98 9.11C6.16 9.11 6.24 9.02 6.29 8.96C6.31 8.90 6.69 8.02 7.49 8.02C7.85 8.02 8.13 8.22 8.30 8.40C8.58 8.72 8.64 9.07 8.64 9.52L8.64 10.02C8.64 10.12 8.62 10.19 8.53 10.22C8.50 10.23 6.82 10.29 6.06 10.89C5.73 11.16 5.47 11.61 5.47 12.14L5.47 12.15C5.47 13.01 6.10 13.72 7.07 13.72C7.59 13.72 8.05 13.54 8.37 13.33C8.72 13.09 8.68 13.02 8.75 13.02C8.76 13.02 8.76 13.03 8.78 13.03C8.81 13.05 9.14 13.61 9.77 13.61C10.50 13.61 10.85 12.82 10.85 12.50C10.85 12.38 10.78 12.32 10.72 12.32C10.51 12.32 10.54 12.78 10.11 12.78C9.97 12.78 9.63 12.71 9.63 12.17L9.63 9.41C9.63 9.24 9.62 9.07 9.60 8.90C9.46 7.53 8.11 7.36 7.57 7.36C6.41 7.36 5.42 8.11 5.42 8.61ZM7.41 12.95C7.22 12.95 6.97 12.92 6.80 12.77C6.58 12.57 6.51 12.22 6.51 12.00C6.51 11.65 6.66 11.40 6.85 11.24C7.31 10.81 8.26 10.74 8.51 10.74C8.64 10.74 8.65 10.81 8.65 11.14L8.65 11.72L8.65 12.05C8.65 12.18 8.64 12.28 8.57 12.38C8.50 12.47 8.09 12.95 7.41 12.95ZM15.96 12.98C15.97 12.98 16.00 12.98 16.00 13.03L16.00 13.36C16.00 13.50 16.03 13.64 16.20 13.64C16.25 13.64 16.31 13.61 16.35 13.58C17.56 12.92 17.75 13.24 17.75 12.82C17.75 12.74 17.74 12.70 17.64 12.66C17.02 12.36 16.94 12.40 16.94 12.24L16.94 7.85C16.94 7.71 16.93 7.57 16.73 7.57C16.55 7.57 16.38 7.59 15.01 7.63C14.90 7.64 14.81 7.69 14.81 7.87C14.81 8.01 14.88 8.06 15.02 8.09C15.74 8.22 15.95 8.20 15.95 8.60L15.95 12.04C15.95 12.21 15.92 12.22 15.71 12.46C15.46 12.71 15.05 12.96 14.52 12.96C13.78 12.96 13.26 12.46 13.03 12.03C12.78 11.52 12.78 11.00 12.78 10.58L12.78 7.71C12.78 7.62 12.75 7.55 12.64 7.55C12.50 7.55 12.35 7.56 11.19 7.63C11.05 7.64 11.03 7.73 11.03 7.83L11.03 7.87C11.03 8.11 11.21 8.05 11.47 8.16C11.84 8.30 11.84 8.43 11.84 8.55C11.84 8.78 11.83 10.36 11.83 10.81C11.83 11.10 11.84 11.38 11.87 11.66C12.04 12.95 12.88 13.69 14.01 13.69C15.18 13.69 15.89 12.98 15.96 12.98ZM18.44 9.11C18.44 9.80 18.86 10.50 19.99 10.82C20.44 10.95 21.67 11.09 21.67 12.01C21.67 12.57 21.17 12.95 20.54 12.95C19.73 12.95 19.08 12.42 18.94 12.12C18.75 11.73 18.97 11.26 18.62 11.26C18.41 11.26 18.37 11.33 18.37 11.69C18.37 11.89 18.38 12.15 18.38 12.53C18.38 12.74 18.41 12.85 18.55 13.01C18.96 13.48 19.84 13.71 20.48 13.71C21.87 13.71 22.61 12.71 22.61 11.82C22.61 11.59 22.55 11.13 22.19 10.71C21.67 10.11 21.01 10.07 20.30 9.87C19.26 9.58 19.19 9.06 19.19 8.86C19.19 8.41 19.60 8.12 20.08 8.12C20.54 8.12 21.04 8.41 21.22 8.67C21.42 8.95 21.38 9.35 21.67 9.35C21.78 9.35 21.99 9.31 21.99 9.13C21.99 9.07 21.81 8.15 21.73 7.66C21.71 7.59 21.67 7.39 21.50 7.39C21.34 7.39 21.28 7.53 21.15 7.53C21.08 7.53 20.87 7.46 20.45 7.46C19.19 7.46 18.44 8.27 18.44 9.11ZM26.84 13.33C26.84 13.43 26.87 13.52 26.99 13.52C27.03 13.52 27.58 13.44 28.25 13.44C28.95 13.44 29.48 13.52 29.53 13.52C29.64 13.52 29.71 13.47 29.71 13.22C29.71 13.02 29.58 12.98 29.47 12.96C29.12 12.92 28.95 12.91 28.95 12.52C28.90 9.90 28.83 9.46 28.55 8.81C28.22 8.06 27.59 7.53 26.67 7.53C25.72 7.53 25.10 8.05 25.02 8.05C24.99 8.05 24.95 8.04 24.95 7.95L24.96 3.64C24.96 3.42 24.84 3.37 24.75 3.37L24.74 3.37C24.64 3.37 24.63 3.40 23.13 4.27C23.10 4.28 22.90 4.37 22.90 4.54C22.90 4.90 23.83 4.77 23.90 5.12C23.91 5.21 23.95 7.42 23.95 8.55L23.95 8.61C23.95 9.90 23.93 11.19 23.88 12.46C23.87 12.66 23.87 12.88 23.55 12.94C23.16 13.02 23.03 13.01 23.03 13.24C23.03 13.37 23.03 13.52 23.20 13.52C23.24 13.52 23.80 13.44 24.51 13.44C25.20 13.44 25.76 13.52 25.80 13.52C25.93 13.52 25.96 13.36 25.96 13.23C25.96 12.73 25.02 13.17 24.91 12.57C24.88 12.47 24.88 9.20 24.88 9.11C24.88 9.04 24.88 8.99 24.89 8.93C24.96 8.65 25.51 8.25 26.11 8.25C26.56 8.25 26.96 8.47 27.24 8.75C27.59 9.13 27.92 9.67 27.92 11.69C27.92 12.75 27.92 12.87 27.64 12.91C27.02 12.99 26.84 12.94 26.84 13.23ZM30.34 8.61C30.34 8.93 30.63 9.11 30.90 9.11C31.08 9.11 31.16 9.02 31.21 8.96C31.23 8.90 31.61 8.02 32.41 8.02C32.77 8.02 33.05 8.22 33.22 8.40C33.50 8.72 33.56 9.07 33.56 9.52L33.56 10.02C33.56 10.12 33.54 10.19 33.45 10.22C33.42 10.23 31.74 10.29 30.98 10.89C30.65 11.16 30.39 11.61 30.39 12.14L30.39 12.15C30.39 13.01 31.02 13.72 31.99 13.72C32.51 13.72 32.97 13.54 33.29 13.33C33.64 13.09 33.60 13.02 33.67 13.02C33.68 13.02 33.68 13.03 33.70 13.03C33.73 13.05 34.06 13.61 34.69 13.61C35.42 13.61 35.77 12.82 35.77 12.50C35.77 12.38 35.70 12.32 35.64 12.32C35.43 12.32 35.46 12.78 35.03 12.78C34.89 12.78 34.55 12.71 34.55 12.17L34.55 9.41C34.55 9.24 34.54 9.07 34.52 8.90C34.38 7.53 33.03 7.36 32.49 7.36C31.33 7.36 30.34 8.11 30.34 8.61ZM32.33 12.95C32.14 12.95 31.89 12.92 31.72 12.77C31.50 12.57 31.43 12.22 31.43 12.00C31.43 11.65 31.58 11.40 31.77 11.24C32.23 10.81 33.18 10.74 33.43 10.74C33.56 10.74 33.57 10.81 33.57 11.14L33.57 11.72L33.57 12.05C33.57 12.18 33.56 12.28 33.49 12.38C33.42 12.47 33.01 12.95 32.33 12.95ZM37.83 8.16C37.83 8.15 37.84 8.11 37.84 8.08L37.84 7.53C37.84 7.42 37.80 7.32 37.67 7.32C37.62 7.32 37.58 7.35 37.53 7.38C36.23 8.08 36.20 8.06 36.20 8.18L36.20 8.19C36.20 8.25 36.25 8.29 36.29 8.33C36.92 8.81 36.92 8.78 36.92 9.11L36.92 12.46C36.92 12.70 36.90 12.88 36.55 12.94C36.12 13.01 36.01 12.99 36.01 13.27C36.01 13.47 36.15 13.52 36.23 13.52C36.27 13.52 36.79 13.44 37.46 13.44C38.15 13.44 38.72 13.54 38.77 13.54C38.89 13.54 38.95 13.43 38.95 13.29C38.95 12.98 38.78 13.01 38.19 12.91C37.90 12.87 37.88 12.67 37.88 12.52L37.88 12.47L37.88 9.16C37.88 9.10 37.88 9.03 37.90 8.97C37.95 8.72 38.53 8.06 39.34 8.06C39.66 8.06 40.43 8.19 40.74 8.90C40.91 9.32 40.92 10.16 40.92 10.42L40.92 12.59C40.92 12.82 40.88 12.89 40.70 12.92C40.14 13.02 39.97 12.99 39.97 13.24C39.97 13.38 40.00 13.52 40.17 13.52C40.19 13.52 40.70 13.44 41.31 13.44C42.01 13.44 42.36 13.52 42.49 13.52C42.57 13.52 42.70 13.48 42.70 13.24C42.70 13.15 42.69 13.02 42.50 12.99C42.01 12.92 41.83 12.95 41.83 12.56L41.83 12.53C41.83 10.60 41.85 10.35 41.85 10.11C41.85 9.87 41.85 9.63 41.82 9.39C41.68 7.66 40.46 7.38 39.83 7.38L39.80 7.38C38.60 7.39 37.94 8.22 37.88 8.22L37.87 8.22C37.86 8.22 37.83 8.20 37.83 8.16ZM45.46 7.85C46.35 7.85 46.93 8.85 46.93 9.83C46.93 10.70 46.44 11.38 45.68 11.38C44.81 11.38 44.24 10.44 44.24 9.39C44.24 8.47 44.76 7.85 45.46 7.85ZM44.00 14.67C44.00 14.43 44.10 14.18 44.27 14.01C44.37 13.92 44.41 13.86 44.51 13.86L44.55 13.86C46.00 14.01 46.87 13.89 47.50 14.21C47.66 14.28 48.06 14.53 48.06 15.04C48.06 15.44 47.73 16.06 46.28 16.06C45.00 16.06 44.00 15.51 44.00 14.67ZM43.15 9.56C43.15 9.93 43.23 10.28 43.41 10.58C43.81 11.30 44.27 11.34 44.27 11.48C44.27 11.49 44.27 11.51 44.25 11.52C44.24 11.54 43.46 12.12 43.46 12.84C43.46 13.47 43.97 13.59 43.97 13.68C43.97 13.71 43.96 13.72 43.95 13.73C43.93 13.75 43.22 14.10 43.22 14.95C43.22 15.60 43.67 16.72 45.96 16.72C48.27 16.72 48.87 15.57 48.87 14.80C48.87 14.18 48.48 13.50 47.60 13.24C46.51 12.92 44.17 13.30 44.17 12.46C44.17 12.15 44.55 11.75 44.80 11.75C44.98 11.75 45.15 11.87 45.61 11.87C46.93 11.87 47.94 10.81 47.94 9.52C47.94 8.99 47.78 8.72 47.78 8.64C47.78 8.60 47.81 8.55 47.84 8.53C47.96 8.43 48.85 8.23 48.85 7.69C48.85 7.41 48.58 7.11 48.31 7.11C48.09 7.11 47.98 7.32 47.91 7.43C47.73 7.70 47.45 7.88 47.18 7.88C46.87 7.88 46.42 7.38 45.42 7.38C44.11 7.38 43.15 8.39 43.15 9.56ZM49.56 13.44L52.67 13.44C52.77 13.44 52.78 13.50 52.78 13.58L52.78 15.88C52.78 15.97 52.79 16.04 52.92 16.04L53.48 16.04C53.61 16.04 53.62 15.99 53.62 15.88L53.62 13.54C53.62 13.45 53.68 13.44 53.75 13.44L54.53 13.44C54.61 13.44 54.66 13.43 54.70 13.38C54.75 13.31 54.85 12.59 54.85 12.56C54.85 12.45 54.78 12.38 54.57 12.38C54.46 12.38 54.40 12.40 53.98 12.40L53.76 12.40C53.65 12.40 53.62 12.35 53.62 12.25L53.63 7.69C53.63 7.48 53.52 7.43 53.44 7.43C53.34 7.43 53.27 7.49 53.21 7.56C53.12 7.69 53.20 7.56 49.56 12.80C49.46 12.94 49.32 13.08 49.32 13.24C49.32 13.41 49.45 13.44 49.56 13.44ZM52.64 12.52L50.61 12.52C50.54 12.52 50.53 12.47 50.53 12.45C50.53 12.40 50.53 12.40 52.63 9.30C52.64 9.28 52.65 9.24 52.71 9.24C52.77 9.24 52.78 9.30 52.78 9.35L52.78 12.33C52.78 12.42 52.75 12.52 52.64 12.52Z"></path></g><defs data-v-fde0c5aa=""><linearGradient data-v-fde0c5aa="" gradientTransform="rotate(25)" id="b76d6f19-45b5-48a6-bdc5-695f99009a10" x1="0%" y1="0%" x2="100%" y2="0%"><stop data-v-fde0c5aa="" offset="0%" stop-color="#D0E90D" stop-opacity="1"></stop><stop data-v-fde0c5aa="" offset="100%" stop-color="#1536F1" stop-opacity="1"></stop></linearGradient></defs><g data-v-fde0c5aa="" id="a2f50043-7788-46aa-89da-8c6a08245c73" stroke="none" fill="url(#b76d6f19-45b5-48a6-bdc5-695f99009a10)" transform="matrix(0.6230351292775558,0,0,0.6230351292775558,36.88437337660805,118.8505207026156)"><path d="M46.609 28.578V25.34a4.444 4.444 0 00-4.441-4.442 4.444 4.444 0 00-4.442 4.442v3.238a2.75 2.75 0 002.75 2.75h3.38a2.75 2.75 0 002.75-2.75zm-2.758 2.25h-3.379a2.256 2.256 0 01-2.25-2.25V25.34a3.948 3.948 0 013.942-3.942 3.948 3.948 0 013.941 3.942v3.238a2.256 2.256 0 01-2.25 2.25z"></path><path d="M43.621 25.391a.96.96 0 01-.96-.96c0-.33.16-.622.41-.79a2.514 2.514 0 00-.91-.172 2.645 2.645 0 102.328 1.379c-.161.32-.481.54-.872.54zM56.148 31.328h3.379a2.75 2.75 0 002.75-2.75V25.34a4.444 4.444 0 00-4.441-4.442 4.444 4.444 0 00-4.442 4.442v3.238a2.75 2.75 0 002.75 2.75zm-2.25-5.988c0-2.172 1.77-3.942 3.941-3.942s3.942 1.77 3.942 3.942v3.238a2.256 2.256 0 01-2.25 2.25h-3.38a2.256 2.256 0 01-2.25-2.25V25.34z"></path><path d="M57.828 28.762a2.646 2.646 0 002.328-3.91c-.16.32-.48.539-.871.539a.96.96 0 01-.96-.961c0-.328.16-.621.41-.789a2.514 2.514 0 00-.91-.172 2.645 2.645 0 000 5.289zM48.199 39.68c1.031.91 2.578.91 3.61 0l.94-.828a.376.376 0 00-.25-.66h-4.987a.376.376 0 00-.25.66l.94.828z"></path><path d="M94.07 83.762c-.238-2.36-.738-4.7-1.469-6.95l-3.148-9.671a8.548 8.548 0 00-.559-1.73 8.583 8.583 0 00-10.351-4.75c.07-3.192-1.989-6.18-5.192-7.13l-9.91-2.949a1.002 1.002 0 00-1.18.52l-.09.191L57 48.973v-1.7c3.59-1.671 5.398-4.398 6.859-6.64 1.371-2.09 2.45-3.75 4.5-4.16 1.148-.219 2.02-1.172 2.191-2.371l1.57-11.641a3.303 3.303 0 00-1.671-3.32c-2.7-1.532-4.14-3.481-5.68-5.54l-.18-.238c-2.109-2.8-4.218-5.25-8.699-6.77a18.678 18.678 0 00-11.8 0c-4.47 1.52-6.59 3.962-8.7 6.77l-.18.238c-1.53 2.059-2.98 4.012-5.68 5.54-1.19.69-1.851 1.988-1.66 3.32l1.578 11.64c.16 1.2 1.04 2.161 2.172 2.372 2.059.422 3.141 2.07 4.512 4.16 1.461 2.238 3.27 4.969 6.86 6.64v1.7l-5.172 2.32-.09-.191a.993.993 0 00-1.18-.52l-9.91 2.95c-3.211.949-5.262 3.93-5.192 7.128a8.587 8.587 0 00-10.352 4.75 8.202 8.202 0 00-.55 1.711l-3.148 9.692a33.45 33.45 0 00-1.47 6.949l-.921 8.941a.991.991 0 00.957 1.102l16.172.55h.031a.993.993 0 001-1.012l-.078-8.839a9.247 9.247 0 011.559-5.25l1.59-2.379 1.898 5.281v7.239a3.416 3.416 0 003.41 3.41h36.898a3.416 3.416 0 003.41-3.41v-7.239l1.899-5.28 1.59 2.378a9.264 9.264 0 011.558 5.25l-.078 8.84c0 .27.11.539.3.73.192.18.442.282.7.282h.031l16.172-.551c.282 0 .54-.13.719-.34.18-.21.27-.48.238-.762l-.922-8.949zm-7.379-18.25l-10.578 7.7a6.55 6.55 0 01-1.64-4.329c0-3.629 2.96-6.578 6.59-6.578 2.327 0 4.448 1.23 5.64 3.219zm-31.69-17.453v4.309c0 .629-.31 1.218-.81 1.55-2.808 1.82-5.55 1.82-8.37 0-.512-.328-.82-.91-.82-1.55v-4.309c.058.02.128.031.19.04.551.16 1.11.3 1.692.398 1.039.19 2.078.28 3.121.28 1.04 0 2.078-.09 3.11-.28.59-.102 1.148-.239 1.699-.399a1.04 1.04 0 01.191-.039zM44.737 8.5c1.7-.57 3.48-.852 5.262-.852s3.558.282 5.261.852c3.7 1.25 5.532 3.2 7.372 5.602-4.059 1.308-8.301 1.988-12.63 1.988s-8.57-.672-12.628-1.988c1.84-2.399 3.68-4.34 7.37-5.59zm-6.93 31.051C36.32 37.27 34.91 35.11 32.02 34.52c-.3-.059-.531-.328-.57-.672l-1.578-11.641c-.07-.52.191-1.04.672-1.309 3.058-1.738 4.71-3.949 6.289-6.09l.172-.23s.031-.039.05-.059c4.16 1.372 8.512 2.07 12.962 2.07s8.8-.698 12.96-2.07c.012.02.032.04.04.051l.171.239c1.59 2.14 3.231 4.351 6.29 6.078.48.28.75.789.68 1.32l-1.571 11.64c-.05.34-.281.622-.59.673-2.89.59-4.3 2.75-5.789 5.031-1.602 2.441-3.25 4.969-6.988 6.328-.75.281-1.57.5-2.442.649a15.663 15.663 0 01-5.53 0c-.86-.149-1.68-.372-2.442-.649-3.73-1.36-5.38-3.89-6.98-6.328zM43 51.18v1.191c0 1.328.648 2.532 1.738 3.23 1.75 1.13 3.512 1.692 5.27 1.692 1.761 0 3.52-.558 5.27-1.691 1.077-.7 1.718-1.91 1.718-3.23V51.18l4.289 1.922-5.93 12.172H44.636l-5.93-12.172 4.29-1.922zM18.949 62.289c3.629 0 6.59 2.95 6.59 6.578 0 1.61-.59 3.149-1.641 4.328l-10.59-7.699a6.572 6.572 0 015.64-3.219zm4.039 15.852a11.27 11.27 0 00-1.899 6.379l.079 7.8-14.06-.468.81-7.879c.23-2.219.69-4.422 1.378-6.539l3.25-10 11.84 8.621-1.398 2.102zm3.781-5.719c.5-1.101.77-2.308.77-3.55 0-3.02-1.578-5.68-3.95-7.211-.601-2.68.95-5.422 3.622-6.211l9.101-2.7 6.11 12.52H31.55a3.416 3.416 0 00-3.41 3.41v7.56l-1.372-3.821zM69.02 89.4a.57.57 0 01-.57.578l-36.898.004a.573.573 0 01-.57-.578V68.684c0-.32.25-.57.57-.57h36.898c.32 0 .57.25.57.57v20.72zm-.57-24.129H57.578l6.11-12.52 9.1 2.7c2.673.788 4.22 3.53 3.622 6.21-2.371 1.532-3.95 4.192-3.95 7.211 0 1.239.27 2.45.77 3.551l-1.37 3.82v-7.558a3.416 3.416 0 00-3.411-3.41zm10.379 27.051l.078-7.8c.02-2.282-.64-4.489-1.898-6.38l-1.399-2.101 11.84-8.621 3.25 10a31.686 31.686 0 011.379 6.539l.809 7.879-14.06.469z"></path></g><!----></svg>